<?xml version="1.0" encoding="UTF-8"?>
<svg xmlns="http://www.w3.org/2000/svg" xmlns:xlink="http://www.w3.org/1999/xlink" width="20pt" height="20pt" viewBox="0 0 20 20" version="1.1">
<g id="surface1">
<path style=" stroke:none;fill-rule:nonzero;fill:rgb(0%,0%,0%);fill-opacity:1;" d="M 19.6875 10 C 19.6875 4.648438 15.351562 0.3125 10 0.3125 C 4.648438 0.3125 0.3125 4.648438 0.3125 10 C 0.3125 15.351562 4.648438 19.6875 10 19.6875 C 15.351562 19.6875 19.6875 15.351562 19.6875 10 Z M 2.1875 10 C 2.1875 5.683594 5.683594 2.1875 10 2.1875 C 14.316406 2.1875 17.8125 5.683594 17.8125 10 C 17.8125 14.316406 14.316406 17.8125 10 17.8125 C 5.683594 17.8125 2.1875 14.316406 2.1875 10 Z M 5 10.78125 L 5 9.21875 C 5 8.960938 5.210938 8.75 5.46875 8.75 L 10 8.75 L 10 6.132812 C 10 5.714844 10.503906 5.507812 10.800781 5.800781 L 14.667969 9.667969 C 14.851562 9.851562 14.851562 10.148438 14.667969 10.332031 L 10.800781 14.199219 C 10.503906 14.496094 10 14.285156 10 13.867188 L 10 11.25 L 5.46875 11.25 C 5.210938 11.25 5 11.039062 5 10.78125 Z M 5 10.78125 "/>
</g>
</svg>
