<?xml version="1.0" encoding="UTF-8"?>
<svg xmlns="http://www.w3.org/2000/svg" xmlns:xlink="http://www.w3.org/1999/xlink" width="20pt" height="20pt" viewBox="0 0 20 20" version="1.1">
<g id="surface1">
<path style=" stroke:none;fill-rule:nonzero;fill:rgb(0%,0%,0%);fill-opacity:1;" d="M 10.011719 10.664062 L 3.941406 15.976562 C 3.523438 16.34375 2.84375 16.34375 2.429688 15.976562 L 1.417969 15.09375 C 1 14.726562 1 14.132812 1.417969 13.769531 L 5.722656 10.003906 L 1.417969 6.238281 C 1 5.871094 1 5.277344 1.417969 4.914062 L 2.425781 4.023438 C 2.84375 3.65625 3.523438 3.65625 3.9375 4.023438 L 10.007812 9.335938 C 10.433594 9.703125 10.433594 10.296875 10.011719 10.664062 Z M 18.585938 9.335938 L 12.511719 4.023438 C 12.09375 3.65625 11.414062 3.65625 11 4.023438 L 9.992188 4.90625 C 9.570312 5.273438 9.570312 5.867188 9.992188 6.230469 L 14.292969 9.996094 L 9.992188 13.761719 C 9.570312 14.128906 9.570312 14.722656 9.992188 15.085938 L 11 15.96875 C 11.417969 16.335938 12.097656 16.335938 12.511719 15.96875 L 18.585938 10.65625 C 19.003906 10.296875 19.003906 9.703125 18.585938 9.335938 Z M 18.585938 9.335938 "/>
</g>
</svg>
